<svg id="Capa_1" data-name="Capa 1" xmlns="http://www.w3.org/2000/svg" xmlns:xlink="http://www.w3.org/1999/xlink" viewBox="0 0 145.06 69.73"><defs><style>.cls-1{fill:none;}.cls-2{isolation:isolate;}.cls-3{fill:#2b2b2b;}.cls-4{fill:#626260;}.cls-5{fill:#616160;}.cls-6{clip-path:url(#clip-path);}.cls-7{fill:#858585;}.cls-8{fill:#ececec;}.cls-9{clip-path:url(#clip-path-2);}.cls-10{fill:gray;}.cls-11{clip-path:url(#clip-path-3);}.cls-12{clip-path:url(#clip-path-4);}.cls-13{clip-path:url(#clip-path-5);}.cls-14{fill:#5f5f5e;}.cls-15{fill:#60605f;}.cls-16{fill:#5f5f5f;}.cls-17{fill:#fafafa;}.cls-18{fill:#5e5e5e;}.cls-19{fill:#474747;}</style><clipPath id="clip-path" transform="translate(-3.03 -40.07)"><path class="cls-1" d="M46.72,61l1.34-1.59c2.63-3.09,6.6-4.79,11.49-4.88a19.13,19.13,0,0,1,8.15,1.52l-1.34,1.59a19,19,0,0,0-8.15-1.52C53.31,56.25,49.34,57.94,46.72,61Z"/></clipPath><clipPath id="clip-path-2" transform="translate(-3.03 -40.07)"><path class="cls-1" d="M42.36,58.6,43.7,57c-3.13,3.69-4.8,8.71-4.57,14.58.52,13.09,9.29,20,20.58,19.85A25.48,25.48,0,0,0,70.2,89.36L68.86,91A25.7,25.7,0,0,1,58.36,93c-11.29.19-20.06-6.77-20.58-19.85A20.85,20.85,0,0,1,42.36,58.6Z"/></clipPath><clipPath id="clip-path-3" transform="translate(-3.03 -40.07)"><path class="cls-1" d="M132.85,69l-1.35,1.59a4,4,0,0,1-.27.31l1.35-1.59Z"/></clipPath><clipPath id="clip-path-4" transform="translate(-3.03 -40.07)"><path class="cls-1" d="M128.45,66.74l-1.34,1.59a8,8,0,0,0,1.72-5.65c-.21-5.28-4.05-7.76-9.76-7.66a21.79,21.79,0,0,0-4.85.5l1.34-1.59a21.9,21.9,0,0,1,4.86-.5c5.7-.1,9.55,2.38,9.76,7.66A8,8,0,0,1,128.45,66.74Z"/></clipPath><clipPath id="clip-path-5" transform="translate(-3.03 -40.07)"><path class="cls-1" d="M132.58,69.34l-1.35,1.59c-2.61,2.95-7,4.5-12.06,4.59a17.54,17.54,0,0,1-4.17-.28l1.34-1.59a17.66,17.66,0,0,0,4.18.28C125.57,73.85,130,72.29,132.58,69.34Z"/></clipPath></defs><title>logo</title><g class="cls-2"><polygon class="cls-3" points="142.06 0 145.06 65.19 4.5 68.08 1.5 2.89 142.06 0"/><polygon class="cls-4" points="145.06 65.19 143.56 66.83 3 69.73 4.5 68.08 145.06 65.19"/><polygon class="cls-5" points="4.5 68.08 3 69.73 0 4.54 1.5 2.89 4.5 68.08"/></g><g class="cls-2"><g class="cls-2"><g class="cls-6"><path class="cls-7" d="M59.55,54.57c-4.89.09-8.86,1.79-11.49,4.88L46.72,61c2.62-3.1,6.59-4.79,11.49-4.88a19,19,0,0,1,8.15,1.52l1.34-1.59A19.13,19.13,0,0,0,59.55,54.57Z" transform="translate(-3.03 -40.07)"/></g></g><path class="cls-8" d="M59.21,50.26c5-.09,8.18.92,9.57,1.61L67.7,56.09a19.13,19.13,0,0,0-8.15-1.52c-9.38.17-15.38,6.26-15,16.75.39,9.77,6.28,15.94,16,15.77A20.4,20.4,0,0,0,69,85.29l1.23,4.07a25.48,25.48,0,0,1-10.49,2.08c-11.29.2-20.06-6.76-20.58-19.85C38.63,59.09,46.79,50.47,59.21,50.26Z" transform="translate(-3.03 -40.07)"/><g class="cls-2"><g class="cls-9"><g class="cls-2"><path class="cls-7" d="M70.2,89.36,68.86,91A25.7,25.7,0,0,1,58.36,93c-11.29.19-20.06-6.77-20.58-19.85A20.85,20.85,0,0,1,42.36,58.6L43.7,57c-3.13,3.69-4.8,8.71-4.57,14.58.52,13.09,9.29,20,20.58,19.85A25.48,25.48,0,0,0,70.2,89.36" transform="translate(-3.03 -40.07)"/></g></g></g></g><g class="cls-2"><polygon class="cls-10" points="89.4 14.57 88.05 16.16 100.29 15.94 101.63 14.36 89.4 14.57"/><polygon class="cls-10" points="90.8 50.11 89.46 51.7 84.22 51.79 85.57 50.2 90.8 50.11"/><polygon class="cls-8" points="101.46 9.98 101.63 14.36 89.4 14.57 90.8 50.11 85.57 50.2 84.17 14.66 72 14.87 71.82 10.49 101.46 9.98"/><polygon class="cls-10" points="84.17 14.66 72 14.87 71.82 10.49 70.47 12.08 70.65 16.46 82.82 16.25 84.22 51.79 85.57 50.2 84.17 14.66"/></g><g class="cls-2"><g class="cls-2"><g class="cls-11"><g class="cls-2"><path class="cls-7" d="M132.85,69l-1.35,1.59a4,4,0,0,1-.27.31l1.35-1.59.27-.31" transform="translate(-3.03 -40.07)"/></g></g></g><g class="cls-2"><g class="cls-12"><g class="cls-2"><path class="cls-7" d="M128.45,66.74l-1.34,1.59a8,8,0,0,0,1.72-5.65c-.21-5.28-4.05-7.76-9.76-7.66a21.79,21.79,0,0,0-4.85.5l1.34-1.59a21.9,21.9,0,0,1,4.86-.5c5.7-.1,9.55,2.38,9.76,7.66a8,8,0,0,1-1.73,5.65" transform="translate(-3.03 -40.07)"/></g></g></g><g class="cls-2"><g class="cls-13"><path class="cls-7" d="M120.52,73.93a17.66,17.66,0,0,1-4.18-.28L115,75.24a17.66,17.66,0,0,0,4.18.28c5-.09,9.45-1.64,12.06-4.59l1.35-1.59C130,72.29,125.57,73.85,120.52,73.93Z" transform="translate(-3.03 -40.07)"/></g></g><path class="cls-8" d="M131.5,52.47a11,11,0,0,1,3.83,8.29,11.45,11.45,0,0,1-2.75,8.58c-2.61,3-7,4.51-12.06,4.59a17.66,17.66,0,0,1-4.18-.28l.63,16-5.16.09-1.56-39.44a59.31,59.31,0,0,1,9.89-.94C125.25,49.26,129,50.38,131.5,52.47Zm-11,17.32c6.24-.11,9.92-3.19,9.71-8.7-.21-5.28-4.06-7.76-9.76-7.66a21.9,21.9,0,0,0-4.86.5l.62,15.52a17.8,17.8,0,0,0,4.29.34" transform="translate(-3.03 -40.07)"/><polygon class="cls-10" points="113.95 49.58 112.6 51.16 107.43 51.26 108.78 49.67 113.95 49.58"/><polygon class="cls-10" points="108.78 49.67 107.43 51.26 105.87 11.81 107.22 10.22 108.78 49.67"/></g><g class="cls-2"><polygon class="cls-10" points="25.33 33.66 22.11 35.52 19.54 35.74 22.77 33.89 25.33 33.66"/><polygon class="cls-14" points="21.1 32.29 17.87 34.14 17.8 28.46 21.03 26.61 21.1 32.29"/><polygon class="cls-10" points="25.54 39.72 22.31 41.57 19.64 41.8 22.87 39.95 25.54 39.72"/><polygon class="cls-15" points="16.52 32.69 13.29 34.54 13.22 28.86 16.45 27.01 16.52 32.69"/><polygon class="cls-10" points="18.27 38.6 15.04 40.45 14.97 36.14 18.2 34.29 18.27 38.6"/><polygon class="cls-10" points="21.19 38.35 17.96 40.2 15.04 40.45 18.27 38.6 21.19 38.35"/><polygon class="cls-10" points="21.18 40.1 17.95 41.95 15.04 42.2 18.27 40.35 21.18 40.1"/><polygon class="cls-10" points="22.96 45.78 19.73 47.63 18.05 47.78 21.28 45.92 22.96 45.78"/><polygon class="cls-16" points="21.28 45.92 18.05 47.78 17.95 41.95 21.18 40.1 21.28 45.92"/><polygon class="cls-15" points="16.59 38.75 13.36 40.6 13.28 36.29 16.51 34.44 16.59 38.75"/><polygon class="cls-17" points="25.33 33.77 22.77 33.99 22.87 38.3 25.29 38.09 25.53 39.82 22.86 40.05 22.96 45.88 21.27 46.03 21.18 40.2 18.26 40.46 18.35 46.28 16.66 46.43 16.58 40.6 14.28 40.8 14.03 39.08 16.59 38.85 16.51 34.54 14.1 34.75 13.85 33.03 16.52 32.79 16.45 27.11 18.07 26.97 18.18 32.65 21.1 32.39 21.02 26.71 22.68 26.57 22.77 32.24 25.08 32.04 25.33 33.77"/><polygon class="cls-14" points="16.51 34.44 13.28 36.29 10.87 36.5 14.1 34.65 16.51 34.44"/><polygon class="cls-10" points="14.1 34.65 10.87 36.5 10.63 34.77 13.86 32.92 14.1 34.65"/><polygon class="cls-10" points="14.28 40.7 11.05 42.55 10.81 40.83 14.04 38.97 14.28 40.7"/><polygon class="cls-18" points="16.58 40.5 13.35 42.35 11.05 42.55 14.28 40.7 16.58 40.5"/><polygon class="cls-16" points="16.67 46.33 13.44 48.18 13.35 42.35 16.58 40.5 16.67 46.33"/><polygon class="cls-10" points="18.36 46.18 15.13 48.03 13.44 48.18 16.67 46.33 18.36 46.18"/><polygon class="cls-19" points="21.19 38.35 18.27 38.6 18.2 34.29 21.12 34.03 21.19 38.35"/></g></svg>